# File created by Blade
# Date/Time:  Tue Jan 27 19:00:46 2015
#---------------------------------------------------------
:version 1.10
:name HOM
:units
  mass 1.0
  length 1.000000
  angle deg
:documentation
     Acclaim Skeleton File
:root
   axis xyz
   order TX TY TZ RX RY RZ
   position 0.000000 0.000000 0.000000
   orientation 0 0 0
:bonedata
   begin
      id 1
      name Spine_dum
      direction 0.000000 1.000000 0.000000
      length 5.195262
      axis 0.0 0.0 0.0 xyz
   end
   begin
      id 2
      name LeftUpLeg_dum
      direction 1.000000 0.000000 0.000000
      length 3.351363
      axis 0.0 0.0 0.0 xyz
   end
   begin
      id 3
      name RightUpLeg_dum
      direction -1.000000 0.000000 0.000000
      length 3.351363
      axis 0.0 0.0 0.0 xyz
   end
   begin
      id 4
      name Spine
      direction 0.000000 1.000000 0.000000
      length 0.000000
      axis 0.0 0.0 0.0 xyz
      dof rx ry rz
   end
   begin
      id 5
      name Spine_dum1
      direction 0.000000 1.000000 0.000000
      length 15.653875
      axis 0.0 0.0 0.0 xyz
   end
   begin
      id 6
      name Spine_dum2
      direction 0.000000 1.000000 0.000000
      length 10.329768
      axis 0.0 0.0 0.0 xyz
   end
   begin
      id 7
      name Spine_dum3
      direction 0.000000 1.000000 0.000000
      length 10.329768
      axis 0.0 0.0 0.0 xyz
   end
   begin
      id 8
      name Head
      direction 0.000000 1.000000 0.000000
      length 4.527550
      axis 0.0 0.0 0.0 xyz
      dof rx ry rz
   end
   begin
      id 9
      name LeftShoulder
      direction 1.000000 0.000000 0.000000
      length 6.996006
      axis 0.0 0.0 -90.0 xyz
      dof rx ry rz
   end
   begin
      id 10
      name LeftArm
      direction 1.000000 0.000000 0.000000
      length 10.209302
      axis 0.0 0.0 -90.0 xyz
      dof rx ry rz
   end
   begin
      id 11
      name LeftForeArm
      direction 1.000000 0.000000 0.000000
      length 8.563163
      axis 0.0 0.0 -90.0 xyz
      dof ry rz rx
   end
   begin
      id 12
      name LeftHand
      direction 0.000000 0.000000 0.000000
      length 0.000000
      axis 0.0 0.0 -90.0 xyz
      dof rx ry rz
   end
   begin
      id 13
      name LeftHand_dum1
      direction 0.000000 0.000000 0.000000
      length 0.000000
      axis 0.0 0.0 -90.0 xyz
   end
   begin
      id 14
      name LeftHand_dum2
      direction 1.000000 0.000000 0.000000
      length 3.937000
      axis 0.0 0.0 -90.0 xyz
   end
   begin
      id 15
      name LeftHandThumb1
      direction 0.000000 0.000000 1.000000
      length 3.937000
      axis 0.0 0.0 -90.0 xyz
      dof rx rz ry
   end
   begin
      id 16
      name RightShoulder
      direction -1.000000 0.000000 0.000000
      length 6.996006
      axis 0.0 0.0 90.0 xyz
      dof rx ry rz
   end
   begin
      id 17
      name RightArm
      direction -1.000000 0.000000 0.000000
      length 10.209302
      axis 0.0 0.0 90.0 xyz
      dof rx ry rz
   end
   begin
      id 18
      name RightForeArm
      direction -1.000000 0.000000 0.000000
      length 8.563163
      axis 0.0 0.0 90.0 xyz
      dof ry rz rx
   end
   begin
      id 19
      name RightHand
      direction 0.000000 0.000000 0.000000
      length 0.000000
      axis 0.0 0.0 90.0 xyz
      dof rx ry rz
   end
   begin
      id 20
      name RightHand_dum1
      direction 0.000000 0.000000 0.000000
      length 0.000000
      axis 0.0 0.0 90.0 xyz
   end
   begin
      id 21
      name RightHand_dum2
      direction -1.000000 0.000000 0.000000
      length 3.937000
      axis 0.0 0.0 90.0 xyz
   end
   begin
      id 22
      name RightHandThumb1
      direction 0.000000 0.000000 1.000000
      length 3.937000
      axis 0.0 0.0 90.0 xyz
      dof rx rz ry
   end
   begin
      id 23
      name LeftUpLeg
      direction 0.000000 -1.000000 0.000000
      length 16.346831
      axis 0.0 0.0 0.0 xyz
      dof rx ry rz
   end
   begin
      id 24
      name LeftLeg
      direction 0.000000 -1.000000 0.000000
      length 13.959795
      axis 0.0 0.0 0.0 xyz
      dof rx ry rz
   end
   begin
      id 25
      name LeftFoot
      direction 0.000000 -0.258819 0.965926
      length 5.165550
      axis 15.0 0.0 0.0 xyz
      dof rx ry rz
   end
   begin
      id 26
      name LeftToeBase
      direction 0.000000 0.000000 1.000000
      length 2.952750
      axis 0.0 0.0 0.0 xyz
      dof rx ry rz
   end
   begin
      id 27
      name RightUpLeg
      direction 0.000000 -1.000000 0.000000
      length 16.346831
      axis 0.0 0.0 0.0 xyz
      dof rx ry rz
   end
   begin
      id 28
      name RightLeg
      direction 0.000000 -1.000000 0.000000
      length 13.959795
      axis 0.0 0.0 0.0 xyz
      dof rx ry rz
   end
   begin
      id 29
      name RightFoot
      direction 0.000000 -0.258819 0.965926
      length 5.165550
      axis 15.0 0.0 0.0 xyz
      dof rx ry rz
   end
   begin
      id 30
      name RightToeBase
      direction 0.000000 0.000000 1.000000
      length 2.952750
      axis 0.0 0.0 0.0 xyz
      dof rx ry rz
   end
:hierarchy
   begin
      root Spine_dum LeftUpLeg_dum RightUpLeg_dum
      Spine_dum Spine
      LeftUpLeg_dum LeftUpLeg
      RightUpLeg_dum RightUpLeg
      Spine Spine_dum1 Spine_dum2 Spine_dum3
      Spine_dum1 Head
      Spine_dum2 LeftShoulder
      Spine_dum3 RightShoulder
      LeftShoulder LeftArm
      LeftArm LeftForeArm
      LeftForeArm LeftHand
      LeftHand LeftHand_dum1 LeftHand_dum2
      LeftHand_dum1 LeftHandThumb1
      RightShoulder RightArm
      RightArm RightForeArm
      RightForeArm RightHand
      RightHand RightHand_dum1 RightHand_dum2
      RightHand_dum1 RightHandThumb1
      LeftUpLeg LeftLeg
      LeftLeg LeftFoot
      LeftFoot LeftToeBase
      RightUpLeg RightLeg
      RightLeg RightFoot
      RightFoot RightToeBase
   end

# File created by Blade
# Date/Time:  Tue Jan 27 19:00:36 2015
# Frame Rate: 120.000 fps
#------------------------------------------------------
:FULLY-SPECIFIED
:DEGREES
1732
root -1.337959 31.600406 -4.990616 3.929027 -11.389176 -4.894331
Spine 2.480508 -6.359753 -0.915234
Head 23.278496 -15.009379 5.787548
LeftShoulder -17.834497 18.608489 13.017766
LeftArm 1.945774 -37.243424 -76.109144
LeftForeArm -2.596979 -0.000000 104.242343
LeftHand -12.902757 -0.000000 25.916227
LeftHandThumb1 -26.253704 0.000000 33.147579
RightShoulder -13.664609 -5.227019 -7.794998
RightArm 3.553955 -26.674348 84.721295
RightForeArm -24.714876 -0.000000 23.480755
RightHand -14.836765 -0.000000 9.889648
RightHandThumb1 -24.326973 -0.000000 -32.862282
LeftUpLeg -6.239623 8.700378 -7.028150
LeftLeg 14.939129 -0.000000 -0.000000
LeftFoot -30.175243 30.277219 -18.827448
LeftToeBase 10.509513 -0.000000 -0.000000
RightUpLeg -46.905272 -31.109008 6.845132
RightLeg 75.740850 -0.000000 -0.000000
RightFoot -17.021186 -11.139333 30.814715
RightToeBase 8.806269 -0.000000 -0.000000
1733
root -1.342844 31.596921 -4.986080 3.931338 -11.288254 -4.914280
Spine 2.458170 -6.404635 -0.903014
Head 23.398077 -14.801967 5.682265
LeftShoulder -17.839398 18.518697 12.998956
LeftArm 1.962226 -37.180783 -76.063564
LeftForeArm -2.526791 -0.000000 104.293814
LeftHand -12.930067 -0.000000 25.917637
LeftHandThumb1 -26.253704 0.000000 33.147579
RightShoulder -13.676901 -5.109599 -7.859433
RightArm 3.454656 -26.703964 84.776705
RightForeArm -24.762007 -0.000000 23.557011
RightHand -14.793526 -0.000000 9.903223
RightHandThumb1 -24.326973 -0.000000 -32.862282
LeftUpLeg -6.274275 8.605097 -7.006730
LeftLeg 15.021653 -0.000000 -0.000000
LeftFoot -30.189401 30.362698 -18.763957
LeftToeBase 10.367567 -0.000000 -0.000000
RightUpLeg -46.864052 -31.039542 6.681744
RightLeg 76.132217 -0.000000 -0.000000
RightFoot -16.510126 -10.136012 31.090055
RightToeBase 9.090904 -0.000000 -0.000000
1734
root -1.349164 31.594658 -4.978363 3.909706 -11.199223 -4.949969
Spine 2.456474 -6.434386 -0.879999
Head 23.552741 -14.600597 5.562543
LeftShoulder -17.859897 18.460038 12.962107
LeftArm 2.030179 -37.092019 -76.047670
LeftForeArm -2.440288 -0.000000 104.362691
LeftHand -12.927471 -0.000000 25.765785
LeftHandThumb1 -26.253704 0.000000 33.147579
RightShoulder -13.670697 -5.062898 -7.887741
RightArm 3.422164 -26.714732 84.767565
RightForeArm -24.753797 -0.000000 23.658190
RightHand -14.772571 -0.000000 9.893296
RightHandThumb1 -24.326973 -0.000000 -32.862282
LeftUpLeg -6.269501 8.518999 -6.958146
LeftLeg 15.098156 -0.000000 -0.000000
LeftFoot -30.239691 30.385975 -18.747299
LeftToeBase 10.362013 -0.000000 -0.000000
RightUpLeg -46.751935 -30.908913 6.477572
RightLeg 76.602789 -0.000000 -0.000000
RightFoot -15.918936 -9.177588 31.123490
RightToeBase 9.077767 -0.000000 -0.000000
1735
root -1.352372 31.592036 -4.972037 3.895572 -11.106649 -4.972449
Spine 2.443901 -6.461972 -0.856542
Head 23.711643 -14.386010 5.426330
LeftShoulder -17.885590 18.434695 12.899975
LeftArm 2.161885 -36.990826 -76.044606
LeftForeArm -2.480763 -0.000000 104.433293
LeftHand -13.097808 -0.000000 26.190826
LeftHandThumb1 -26.253704 0.000000 33.147579
RightShoulder -13.660643 -5.043194 -7.917621
RightArm 3.426848 -26.694071 84.744023
RightForeArm -24.867288 0.000000 23.743875
RightHand -14.809685 -0.000000 9.963256
RightHandThumb1 -24.326973 -0.000000 -32.862282
LeftUpLeg -6.279542 8.399815 -6.929431
LeftLeg 15.180501 -0.000000 -0.000000
LeftFoot -30.286572 30.434138 -18.749922
LeftToeBase 10.296261 -0.000000 -0.000000
RightUpLeg -46.658911 -30.768619 6.234258
RightLeg 77.185850 -0.000000 -0.000000
RightFoot -15.270640 -8.133840 31.083474
RightToeBase 8.877656 -0.000000 -0.000000
1736
root -1.356940 31.589529 -4.964858 3.880440 -11.009973 -5.002007
Spine 2.435754 -6.485721 -0.825533
Head 23.866238 -14.132102 5.280311
LeftShoulder -17.906519 18.399940 12.837719
LeftArm 2.264681 -36.808144 -76.035636
LeftForeArm -2.341015 -0.000000 104.531589
LeftHand -12.955005 -0.000000 25.773861
LeftHandThumb1 -26.253704 0.000000 33.147579
RightShoulder -13.683042 -5.055763 -7.944733
RightArm 3.500112 -26.745307 84.696328
RightForeArm -24.874937 -0.000000 23.766948
RightHand -14.754879 0.000000 9.859240
RightHandThumb1 -24.326973 -0.000000 -32.862282
LeftUpLeg -6.282207 8.317648 -6.891523
LeftLeg 15.254862 -0.000000 -0.000000
LeftFoot -30.318374 30.439039 -18.747167
LeftToeBase 10.220355 -0.000000 -0.000000
RightUpLeg -46.547761 -30.602752 5.978778
RightLeg 77.859160 -0.000000 -0.000000
RightFoot -14.637237 -7.090676 31.079635
RightToeBase 8.802041 -0.000000 -0.000000
1737
root -1.359799 31.587133 -4.956129 3.841449 -10.896167 -5.013130
Spine 2.452026 -6.538819 -0.811020
Head 24.028700 -13.856356 5.111194
LeftShoulder -17.956911 18.390685 12.761395
LeftArm 2.423985 -36.619510 -76.065093
LeftForeArm -2.177676 -0.000000 104.620155
LeftHand -12.923510 -0.000000 25.446603
LeftHandThumb1 -26.253704 0.000000 33.147579
RightShoulder -13.676305 -5.037772 -7.975574
RightArm 3.538277 -26.771305 84.653301
RightForeArm -24.883956 -0.000000 23.816058
RightHand -14.831362 -0.000000 9.863966
RightHandThumb1 -24.326973 -0.000000 -32.862282
LeftUpLeg -6.257779 8.190132 -6.861757
LeftLeg 15.320980 -0.000000 -0.000000
LeftFoot -30.326747 30.462265 -18.698536
LeftToeBase 10.187888 -0.000000 -0.000000
RightUpLeg -46.429005 -30.454230 5.687274
RightLeg 78.656184 -0.000000 -0.000000
RightFoot -13.977463 -6.223050 30.837840
RightToeBase 8.863880 -0.000000 -0.000000
1738
root -1.362889 31.584933 -4.945042 3.793667 -10.785773 -5.033793
Spine 2.469472 -6.581106 -0.778208
Head 24.218587 -13.557004 4.908479
LeftShoulder -17.987898 18.360888 12.697050
LeftArm 2.546305 -36.424849 -76.067991
LeftForeArm -2.113614 -0.000000 104.698071
LeftHand -12.942391 0.000000 25.631843
LeftHandThumb1 -26.253704 0.000000 33.147579
RightShoulder -13.687643 -5.042501 -8.008401
RightArm 3.607751 -26.809107 84.600283
RightForeArm -24.918620 -0.000000 23.822006
RightHand -14.786354 -0.000000 9.752770
RightHandThumb1 -24.326973 -0.000000 -32.862282
LeftUpLeg -6.209453 8.088230 -6.831684
LeftLeg 15.364937 -0.000000 -0.000000
LeftFoot -30.356105 30.515417 -18.647764
LeftToeBase 10.224174 -0.000000 -0.000000
RightUpLeg -46.283291 -30.298282 5.381251
RightLeg 79.555178 -0.000000 -0.000000
RightFoot -13.346473 -5.330666 30.587264
RightToeBase 9.041851 -0.000000 -0.000000
1739
root -1.366921 31.583442 -4.931177 3.736216 -10.692965 -5.041661
Spine 2.487569 -6.606704 -0.764258
Head 24.412219 -13.229353 4.714598
LeftShoulder -18.037962 18.327085 12.630241
LeftArm 2.672965 -36.164071 -76.052998
LeftForeArm -2.001951 -0.000000 104.784906
LeftHand -13.060776 -0.000000 25.842400
LeftHandThumb1 -26.253704 0.000000 33.147579
RightShoulder -13.683116 -5.012121 -8.037461
RightArm 3.611019 -26.790566 84.565302
RightForeArm -25.014517 -0.000000 23.848374
RightHand -14.791732 -0.000000 9.734415
RightHandThumb1 -24.326973 -0.000000 -32.862282
LeftUpLeg -6.150907 8.044182 -6.808301
LeftLeg 15.420549 -0.000000 -0.000000
LeftFoot -30.387766 30.493047 -18.639831
LeftToeBase 10.221567 -0.000000 -0.000000
RightUpLeg -46.141774 -30.150177 5.093067
RightLeg 80.540219 -0.000000 -0.000000
RightFoot -12.784111 -4.670648 30.143432
RightToeBase 8.931462 -0.000000 -0.000000
1740
root -1.372591 31.582285 -4.914775 3.657300 -10.581081 -5.074737
Spine 2.527061 -6.642655 -0.726574
Head 24.616048 -12.898643 4.502942
LeftShoulder -18.065572 18.308825 12.572319
LeftArm 2.795428 -35.924319 -76.046814
LeftForeArm -1.960544 -0.000000 104.879578
LeftHand -13.221476 -0.000000 26.099475
LeftHandThumb1 -26.253704 0.000000 33.147579
RightShoulder -13.691732 -5.010153 -8.058707
RightArm 3.661857 -26.813241 84.497054
RightForeArm -24.975436 -0.000000 23.860331
RightHand -14.873439 -0.000000 9.704437
RightHandThumb1 -24.326973 -0.000000 -32.862282
LeftUpLeg -6.056296 7.986700 -6.753506
LeftLeg 15.467099 -0.000000 -0.000000
LeftFoot -30.422212 30.460886 -18.631792
LeftToeBase 10.205996 -0.000000 -0.000000
RightUpLeg -45.971185 -30.028717 4.813177
RightLeg 81.633041 -0.000000 -0.000000
RightFoot -12.234678 -4.075723 29.774614
RightToeBase 8.962381 -0.000000 -0.000000
1741
root -1.377300 31.581815 -4.899037 3.584335 -10.484277 -5.110239
Spine 2.563270 -6.660496 -0.683394
Head 24.820262 -12.522395 4.294851
LeftShoulder -18.085806 18.278111 12.512110
LeftArm 2.886323 -35.653270 -76.040059
LeftForeArm -1.726962 -0.000000 104.982409
LeftHand -13.085083 0.000000 25.481830
LeftHandThumb1 -26.253704 0.000000 33.147579
RightShoulder -13.700134 -5.007993 -8.078238
RightArm 3.719279 -26.844575 84.419188
RightForeArm -25.009961 -0.000000 23.858135
RightHand -14.864846 0.000000 9.684136
RightHandThumb1 -24.326973 -0.000000 -32.862282
LeftUpLeg -5.979716 7.961646 -6.696443
LeftLeg 15.533463 -0.000000 -0.000000
LeftFoot -30.449008 30.421725 -18.604750
LeftToeBase 10.154513 -0.000000 -0.000000
RightUpLeg -45.809057 -29.902539 4.558888
RightLeg 82.790836 -0.000000 -0.000000
RightFoot -11.785340 -3.635566 29.430110
RightToeBase 8.941968 -0.000000 -0.000000
1742
root -1.383253 31.581259 -4.882690 3.505888 -10.391745 -5.154473
Spine 2.608378 -6.678290 -0.631635
Head 25.021060 -12.165519 4.063063
LeftShoulder -18.123407 18.278863 12.451320
LeftArm 3.026489 -35.370008 -76.060581
LeftForeArm -1.628283 -0.000000 105.088997
LeftHand -13.046661 -0.000000 25.214434
LeftHandThumb1 -26.253704 0.000000 33.147579
RightShoulder -13.701175 -4.982474 -8.114548
RightArm 3.758940 -26.888234 84.363039
RightForeArm -24.959963 -0.000000 23.822726
RightHand -14.832750 0.000000 9.500834
RightHandThumb1 -24.326973 -0.000000 -32.862282
LeftUpLeg -5.886619 7.957901 -6.628449
LeftLeg 15.577384 -0.000000 -0.000000
LeftFoot -30.469905 30.347828 -18.560911
LeftToeBase 10.316269 -0.000000 -0.000000
RightUpLeg -45.644588 -29.761052 4.309437
RightLeg 84.056823 -0.000000 -0.000000
RightFoot -11.376379 -3.285654 29.274121
RightToeBase 9.179505 -0.000000 -0.000000
1743
root -1.388373 31.581167 -4.868036 3.453368 -10.289351 -5.206736
Spine 2.632165 -6.710783 -0.568219
Head 25.199324 -11.736734 3.853590
LeftShoulder -18.169527 18.292687 12.391218
LeftArm 3.209446 -35.127969 -76.105915
LeftForeArm -1.669619 -0.000000 105.149112
LeftHand -13.190961 0.000000 25.947857
LeftHandThumb1 -26.253704 0.000000 33.147579
RightShoulder -13.697187 -4.969555 -8.131541
RightArm 3.815019 -26.971723 84.249264
RightForeArm -24.734042 -0.000000 23.835575
RightHand -14.911465 -0.000000 9.252807
RightHandThumb1 -24.326973 -0.000000 -32.862282
LeftUpLeg -5.835023 7.925732 -6.553777
LeftLeg 15.663356 -0.000000 -0.000000
LeftFoot -30.537160 30.260084 -18.592859
LeftToeBase 10.409967 -0.000000 -0.000000
RightUpLeg -45.507049 -29.658722 4.086489
RightLeg 85.398444 -0.000000 -0.000000
RightFoot -10.987426 -2.933438 29.201162
RightToeBase 9.206577 -0.000000 -0.000000
1744
root -1.393660 31.581325 -4.853149 3.405167 -10.184633 -5.258749
Spine 2.649622 -6.736688 -0.505868
Head 25.377783 -11.341873 3.653006
LeftShoulder -18.290106 18.416839 12.297622
LeftArm 3.593191 -34.807656 -76.278132
LeftForeArm -1.456744 -0.000000 105.168528
LeftHand -13.203218 -0.000000 25.703992
LeftHandThumb1 -26.253704 0.000000 33.147579
RightShoulder -13.696508 -4.937541 -8.160834
RightArm 3.828564 -27.000565 84.188062
RightForeArm -24.736398 -0.000000 23.825210
RightHand -14.944018 0.000000 9.100141
RightHandThumb1 -24.326973 -0.000000 -32.862282
LeftUpLeg -5.790604 7.908897 -6.481915
LeftLeg 15.753264 -0.000000 -0.000000
LeftFoot -30.571701 30.193543 -18.590412
LeftToeBase 10.360172 -0.000000 -0.000000
RightUpLeg -45.378372 -29.556256 3.885867
RightLeg 86.789401 -0.000000 -0.000000
RightFoot -10.612426 -2.761552 28.922085
RightToeBase 9.012889 -0.000000 -0.000000
